<svg width="16" height="16" viewBox="0 0 16 16" fill="none" xmlns="http://www.w3.org/2000/svg">
<g clip-path="url(#clip0_159_2445)">
<path d="M8.66677 13.3333C9.5505 13.3323 10.3977 12.9808 11.0226 12.3559C11.6475 11.731 11.999 10.8837 12.0001 10V4.16201C12.0011 3.81158 11.9326 3.46444 11.7985 3.14069C11.6644 2.81694 11.4673 2.52304 11.2188 2.27601L9.7241 0.781345C9.47707 0.532794 9.18317 0.335747 8.85942 0.201625C8.53568 0.0675033 8.18853 -0.0010253 7.8381 1.15931e-05H4.66677C3.78304 0.00107016 2.93581 0.3526 2.31092 0.977492C1.68602 1.60238 1.33449 2.44961 1.33344 3.33334V10C1.33449 10.8837 1.68602 11.731 2.31092 12.3559C2.93581 12.9808 3.78304 13.3323 4.66677 13.3333H8.66677ZM2.66677 10V3.33334C2.66677 2.80291 2.87748 2.2942 3.25255 1.91913C3.62763 1.54406 4.13634 1.33334 4.66677 1.33334C4.66677 1.33334 7.9461 1.34268 8.0001 1.34934V2.66668C8.0001 3.0203 8.14058 3.35944 8.39063 3.60949C8.64067 3.85954 8.97981 4.00001 9.33344 4.00001H10.6508C10.6574 4.05401 10.6668 10 10.6668 10C10.6668 10.5304 10.4561 11.0392 10.081 11.4142C9.70591 11.7893 9.1972 12 8.66677 12H4.66677C4.13634 12 3.62763 11.7893 3.25255 11.4142C2.87748 11.0392 2.66677 10.5304 2.66677 10V10ZM14.6668 5.33334V12.6667C14.6657 13.5504 14.3142 14.3976 13.6893 15.0225C13.0644 15.6474 12.2172 15.999 11.3334 16H5.33344C5.15662 16 4.98706 15.9298 4.86203 15.8048C4.73701 15.6797 4.66677 15.5102 4.66677 15.3333C4.66677 15.1565 4.73701 14.987 4.86203 14.8619C4.98706 14.7369 5.15662 14.6667 5.33344 14.6667H11.3334C11.8639 14.6667 12.3726 14.456 12.7476 14.0809C13.1227 13.7058 13.3334 13.1971 13.3334 12.6667V5.33334C13.3334 5.15653 13.4037 4.98696 13.5287 4.86194C13.6537 4.73692 13.8233 4.66668 14.0001 4.66668C14.1769 4.66668 14.3465 4.73692 14.4715 4.86194C14.5965 4.98696 14.6668 5.15653 14.6668 5.33334Z" fill="#0E0E0E"/>
</g>
<defs>
<clipPath id="clip0_159_2445">
<rect width="16" height="16" fill="white"/>
</clipPath>
</defs>
</svg>
