<svg width="20" height="20" viewBox="0 0 20 20" fill="none" xmlns="http://www.w3.org/2000/svg">
<g clip-path="url(#clip0_148_3153)">
<path d="M15.8333 19.1667C15.8333 19.3877 15.7455 19.5997 15.5893 19.7559C15.433 19.9122 15.221 20 15 20H0.833333C0.61232 20 0.400358 19.9122 0.244078 19.7559C0.0877974 19.5997 0 19.3877 0 19.1667C0 18.9457 0.0877974 18.7337 0.244078 18.5774C0.400358 18.4212 0.61232 18.3334 0.833333 18.3334H15C15.221 18.3334 15.433 18.4212 15.5893 18.5774C15.7455 18.7337 15.8333 18.9457 15.8333 19.1667ZM20 6.66669C20 8.97836 18.1792 11.6667 15.8333 11.6667H14.49L14.24 13.1842C14.0805 14.159 13.5788 15.045 12.8249 15.6832C12.071 16.3215 11.1144 16.6701 10.1267 16.6667H5.71C4.72283 16.6694 3.76699 16.3203 3.01383 15.6821C2.26067 15.044 1.75944 14.1584 1.6 13.1842L0.0466667 3.88086C-0.0328218 3.40348 -0.00741019 2.91452 0.121136 2.44796C0.249681 1.9814 0.478278 1.54842 0.791041 1.17911C1.1038 0.809811 1.49323 0.513039 1.93226 0.309422C2.37129 0.105805 2.84939 0.000226681 3.33333 2.40377e-05H12.5C12.9375 -0.00164424 13.3711 0.0835403 13.7754 0.250641C14.1798 0.417742 14.547 0.663436 14.8557 0.973485C15.1645 1.28353 15.4086 1.65177 15.574 2.05686C15.7394 2.46195 15.8227 2.89583 15.8192 3.33336H15.8333C18.4425 3.33336 20 4.58336 20 6.66669ZM14.1433 3.60752C14.1831 3.36881 14.1705 3.12428 14.1062 2.89095C14.042 2.65761 13.9277 2.44107 13.7713 2.25637C13.6149 2.07167 13.4202 1.92325 13.2007 1.82141C12.9811 1.71958 12.742 1.66678 12.5 1.66669H3.33333C3.0914 1.6668 2.85239 1.71958 2.63291 1.82137C2.41343 1.92315 2.21874 2.0715 2.06237 2.2561C1.906 2.44071 1.79169 2.65714 1.72738 2.89037C1.66308 3.1236 1.65032 3.36803 1.69 3.60669L3.24083 12.9109C3.33666 13.4953 3.63743 14.0264 4.08926 14.4092C4.5411 14.7921 5.11447 15.0015 5.70667 15H10.1233C10.7155 15.0015 11.2889 14.7921 11.7407 14.4092C12.1926 14.0264 12.4933 13.4953 12.5892 12.9109L14.1433 3.60752ZM18.3333 6.66669C18.3333 6.25002 18.3333 5.00002 15.8333 5.00002H15.6008L14.7675 10H15.8333C17.1208 10 18.3333 8.12169 18.3333 6.66669Z" fill="#0E0E0E"/>
</g>
<defs>
<clipPath id="clip0_148_3153">
<rect width="20" height="20" fill="white"/>
</clipPath>
</defs>
</svg>
