<svg width="18" height="18" viewBox="0 0 18 18" fill="none" xmlns="http://www.w3.org/2000/svg">
<g clip-path="url(#clip0_148_2734)">
<path d="M16.095 3.1005C15.9434 2.23144 15.4897 1.44383 14.8141 0.876583C14.1384 0.309337 13.2842 -0.00110661 12.402 4.33136e-06H5.58825C4.70536 -0.00133802 3.85041 0.309369 3.17439 0.877247C2.49837 1.44512 2.04479 2.23363 1.89375 3.1035L0.0570032 13.6035C-0.0373196 14.1424 -0.0125748 14.6955 0.129501 15.2238C0.271578 15.7522 0.527544 16.243 0.879441 16.662C1.23134 17.0809 1.67064 17.4177 2.16653 17.6489C2.66242 17.88 3.20288 17.9999 3.75 18H14.25C14.7975 18.0001 15.3383 17.8803 15.8346 17.649C16.3308 17.4177 16.7704 17.0806 17.1224 16.6613C17.4744 16.242 17.7304 15.7507 17.8723 15.2219C18.0142 14.6931 18.0386 14.1397 17.9437 13.6005L16.095 3.1005ZM15.975 15.6968C15.7636 15.9485 15.4996 16.1509 15.2016 16.2897C14.9036 16.4285 14.5787 16.5003 14.25 16.5H3.75C3.42163 16.5 3.09724 16.4281 2.7996 16.2894C2.50196 16.1508 2.23829 15.9486 2.02709 15.6972C1.81589 15.4457 1.66229 15.1511 1.57706 14.834C1.49184 14.5169 1.47705 14.1849 1.53375 13.8615L3.3705 3.3615C3.46195 2.83983 3.7345 2.36713 4.14016 2.02663C4.54583 1.68612 5.05862 1.49964 5.58825 1.5H12.402C12.931 1.50011 13.4431 1.68662 13.8483 2.02678C14.2534 2.36694 14.5258 2.83898 14.6175 3.36L16.4647 13.86C16.5221 14.1834 16.508 14.5153 16.4234 14.8326C16.3387 15.1499 16.1857 15.4449 15.975 15.6968ZM9.74999 3.75V5.25C9.74999 5.44892 9.67097 5.63968 9.53032 5.78033C9.38967 5.92099 9.1989 6 8.99999 6C8.80108 6 8.61032 5.92099 8.46966 5.78033C8.32901 5.63968 8.24999 5.44892 8.24999 5.25V3.75C8.24999 3.55109 8.32901 3.36033 8.46966 3.21967C8.61032 3.07902 8.80108 3 8.99999 3C9.1989 3 9.38967 3.07902 9.53032 3.21967C9.67097 3.36033 9.74999 3.55109 9.74999 3.75ZM9.74999 8.25V9.75C9.74999 9.94892 9.67097 10.1397 9.53032 10.2803C9.38967 10.421 9.1989 10.5 8.99999 10.5C8.80108 10.5 8.61032 10.421 8.46966 10.2803C8.32901 10.1397 8.24999 9.94892 8.24999 9.75V8.25C8.24999 8.05109 8.32901 7.86033 8.46966 7.71967C8.61032 7.57902 8.80108 7.5 8.99999 7.5C9.1989 7.5 9.38967 7.57902 9.53032 7.71967C9.67097 7.86033 9.74999 8.05109 9.74999 8.25ZM9.74999 12.75V14.25C9.74999 14.4489 9.67097 14.6397 9.53032 14.7803C9.38967 14.921 9.1989 15 8.99999 15C8.80108 15 8.61032 14.921 8.46966 14.7803C8.32901 14.6397 8.24999 14.4489 8.24999 14.25V12.75C8.24999 12.5511 8.32901 12.3603 8.46966 12.2197C8.61032 12.079 8.80108 12 8.99999 12C9.1989 12 9.38967 12.079 9.53032 12.2197C9.67097 12.3603 9.74999 12.5511 9.74999 12.75Z" fill="#0E0E0E"/>
</g>
<defs>
<clipPath id="clip0_148_2734">
<rect width="18" height="18" fill="white"/>
</clipPath>
</defs>
</svg>
