<svg width="25" height="25" viewBox="0 0 25 25" fill="none" xmlns="http://www.w3.org/2000/svg">
<rect width="25" height="25" rx="12.5" fill="#F7F7F7"/>
<g clip-path="url(#clip0_147_2448)">
<path d="M16.1458 8.33333H15.8813L14.7437 6.85833C14.5971 6.66969 14.4095 6.51688 14.1951 6.41149C13.9807 6.30609 13.7452 6.25087 13.5062 6.25H11.4937C11.2548 6.25087 11.0193 6.30609 10.8049 6.41149C10.5905 6.51688 10.4028 6.66969 10.2562 6.85833L9.11875 8.33333H8.85417C8.16375 8.33416 7.50185 8.60879 7.01366 9.09699C6.52546 9.58519 6.25083 10.2471 6.25 10.9375V16.1458C6.25083 16.8362 6.52546 17.4981 7.01366 17.9863C7.50185 18.4745 8.16375 18.7492 8.85417 18.75H16.1458C16.8362 18.7492 17.4981 18.4745 17.9863 17.9863C18.4745 17.4981 18.7492 16.8362 18.75 16.1458V10.9375C18.7492 10.2471 18.4745 9.58519 17.9863 9.09699C17.4981 8.60879 16.8362 8.33416 16.1458 8.33333ZM11.0812 7.49479C11.13 7.4318 11.1925 7.38076 11.264 7.34556C11.3355 7.31037 11.4141 7.29193 11.4937 7.29167H13.5062C13.5859 7.29201 13.6645 7.31048 13.7359 7.34567C13.8074 7.38086 13.8699 7.43186 13.9187 7.49479L14.5656 8.33333H10.4344L11.0812 7.49479ZM17.7083 16.1458C17.7083 16.5602 17.5437 16.9577 17.2507 17.2507C16.9577 17.5437 16.5602 17.7083 16.1458 17.7083H8.85417C8.43977 17.7083 8.04234 17.5437 7.74931 17.2507C7.45629 16.9577 7.29167 16.5602 7.29167 16.1458V10.9375C7.29167 10.5231 7.45629 10.1257 7.74931 9.83265C8.04234 9.53962 8.43977 9.375 8.85417 9.375H16.1458C16.5602 9.375 16.9577 9.53962 17.2507 9.83265C17.5437 10.1257 17.7083 10.5231 17.7083 10.9375V16.1458Z" fill="#036635"/>
<path d="M12.5 10.417C11.8819 10.417 11.2777 10.6003 10.7638 10.9437C10.2499 11.287 9.8494 11.7751 9.61288 12.3461C9.37635 12.9171 9.31447 13.5455 9.43505 14.1516C9.55563 14.7578 9.85325 15.3147 10.2903 15.7517C10.7273 16.1887 11.2842 16.4864 11.8903 16.6069C12.4965 16.7275 13.1249 16.6656 13.6959 16.4291C14.2669 16.1926 14.755 15.7921 15.0983 15.2782C15.4417 14.7642 15.625 14.1601 15.625 13.542C15.6242 12.7134 15.2947 11.9191 14.7088 11.3332C14.1229 10.7473 13.3285 10.4178 12.5 10.417ZM12.5 15.6253C12.088 15.6253 11.6852 15.5031 11.3426 15.2742C11 15.0453 10.7329 14.7199 10.5753 14.3393C10.4176 13.9586 10.3763 13.5397 10.4567 13.1356C10.5371 12.7314 10.7355 12.3602 11.0269 12.0689C11.3182 11.7775 11.6894 11.5791 12.0936 11.4987C12.4977 11.4183 12.9166 11.4596 13.2973 11.6172C13.6779 11.7749 14.0033 12.042 14.2322 12.3846C14.4611 12.7272 14.5833 13.1299 14.5833 13.542C14.5833 14.0945 14.3638 14.6244 13.9731 15.0151C13.5824 15.4058 13.0525 15.6253 12.5 15.6253Z" fill="#036635"/>
</g>
<defs>
<clipPath id="clip0_147_2448">
<rect width="12.5" height="12.5" fill="white" transform="translate(6.25 6.25)"/>
</clipPath>
</defs>
</svg>
