<svg width="1188" height="664" viewBox="0 0 1188 664" fill="none" xmlns="http://www.w3.org/2000/svg">
<path d="M1006.6 9.30919C1000.6 7.14821 998.658 7.32308 993.197 10.0537C987.996 12.6541 985.18 11.9667 979.317 11.2769C975.363 10.8118 976.081 10.6837 973.839 12.9255C971.738 15.0261 968.182 13.3927 965.543 12.6596C963.759 12.1642 961.298 11.2407 960.012 10.0537C957.401 7.64355 951.573 6.87803 948.205 5.26738C944.123 3.31477 935.386 -0.242085 930.975 1.4383C926.203 3.25603 919.374 1.31411 915.658 5.95874C913.075 9.18823 906.025 12.181 901.778 12.181C890.243 12.181 878.947 13.7647 867.369 14.0955C853.726 14.4853 841.1 19.3407 828.121 21.7005C820.527 23.0813 812.294 22.6244 804.615 23.7214C801.134 24.2186 798.457 24.5304 794.83 23.4555C791.305 22.4112 790.501 21.5081 788.341 23.6682C785.967 26.0426 783.442 27.2771 782.066 30.4223C780.915 33.0531 779.515 34.9412 777.599 36.8573C775.633 38.8234 772.379 38.0273 769.728 38.0273C766.667 38.0273 765.981 34.8524 763.878 34.2514C762.321 33.8067 752.488 30.5249 752.018 28.88C751.181 25.949 748.656 20.996 745.264 20.7964C743.743 20.707 741.671 19.3066 739.999 18.9351C737.21 18.3152 736.849 19.9515 734.734 21.0092C730.495 23.129 726.451 29.7347 724.204 33.6664C722.057 37.4241 718.461 40.3169 718.461 45.2068C718.461 51.1026 709.47 50.843 704.846 49.3018C698.291 47.1167 691.217 45.2609 683.999 45.6854C680.758 45.8761 679.249 51.123 676.341 51.3759C670.39 51.8934 664.414 50.4648 659.11 47.8127C656.891 46.7031 655.989 49.1617 654.855 51.4291C652.856 55.4279 648.357 58.5954 646.878 62.7036C644.982 67.9716 640.513 67.4227 635.391 68.4472C631.858 69.1537 628.705 70.5745 625.127 70.5745C622.532 70.5745 620.225 68.6599 617.522 68.6599C615.32 68.6599 613.893 67.1307 611.991 68.4472C609.616 70.0913 606.402 70.1625 604.014 72.1167C598.31 76.7834 597.182 79.892 590.08 74.6163C586.862 72.2258 584.5 68.5716 581.358 66.0008C579.293 64.3109 566.205 72.5507 564.34 74.8822C560.255 79.9884 556.698 81.2686 549.928 82.1149C545.302 82.6931 536.295 82.6022 532.963 85.678C528.43 89.8628 525.042 86.5881 521.263 83.019C518.024 79.9601 510.642 80.1472 506.319 80.1472C499.909 80.1472 494.169 80.1785 490.099 85.4121C487.541 88.7 488.009 92.2535 483.93 94.2935C479.146 96.6853 473.534 95.9357 468.613 98.1226C466.566 99.0323 464.665 100.244 462.497 101.207C460.357 102.158 460.643 105.265 457.605 105.94C452.702 107.03 449.077 104.119 445.411 108.702C446.366 119.21 437.659 113.207 431.799 114.672C424.006 116.621 418.349 120.81 411.022 123.031C406.889 124.283 401.421 127.155 397.297 129.447C391.951 132.416 380.953 127.978 376.715 133.276C375.779 134.446 373.251 136.261 371.929 137.583C370.457 139.055 369.148 141.18 367.082 141.18C363.889 141.18 362.067 138.792 359.44 136.643C357.987 135.454 353.614 130.296 351.798 130.195C346.179 129.883 333.432 137.976 331.977 144.523C331.025 148.809 325.393 149.499 322.186 150.732C316.712 152.838 302.964 149.849 298.006 152.9C294.086 155.312 289.512 156.641 285.987 159.813C282.103 163.309 272.275 171.035 265.589 171.035C260.574 172.464 254.871 170.984 248.633 169.598C245.164 168.827 230.006 162.442 230.006 169.598C230.006 171.812 227.857 184.805 227.857 187.27C227.857 190.157 222.254 192.597 220.215 193.957C215.122 197.352 209.719 201.086 205.17 205.181C201.335 208.632 197.482 208.505 192.388 209.432C186.379 210.524 182.493 213.836 177.603 216.824C171.989 220.255 171.92 225.361 164.946 227.354C162.345 228.097 160.391 225.989 158.032 226.663C156.77 227.023 156.543 232.459 156.543 233.789C156.543 237.775 157.5 242.273 157.5 246.712C157.5 252.672 143.319 263.813 143.319 269.659C141.17 278.972 142.151 276.838 139.248 285.545C137.946 289.452 138.893 288.758 135.962 291.038C134.155 292.443 126.841 293.301 124.453 299.271C120.599 301.473 116.343 305.095 114.423 308.935" stroke="#0E0E0E" stroke-opacity="0.25" stroke-width="1.43285" stroke-linecap="round"/>
<path d="M114.423 309.062C114.294 308.028 107.757 303.786 106.286 303.786C102.048 303.786 98.4461 303.607 96.3269 307.845C95.533 309.433 94.4122 310.758 93.2451 312.055C90.9866 314.564 89.6425 317.548 87.3445 320.022C85.2354 322.294 83.6945 324.021 82.797 326.938C82.2829 328.608 82.1095 332.487 80.6171 332.914C74.5124 334.658 71.8138 343.032 67.914 346.932C61.7903 353.056 52.221 353.778 44.7251 357.305C39.9388 359.557 36.937 363.035 34.7656 367.377C33.1702 370.568 30.9455 373.306 29.1657 376.51C24.3504 385.178 17.7283 393.66 10.7123 400.676C8.16041 403.228 6.80979 407.857 4.13524 409.997C2.78417 411.078 2.1986 415.608 1.61716 417.288C0.956635 419.196 0.726085 421.558 1.42924 423.527C3.55346 429.474 11.591 436.602 8.38214 443.822C7.9309 444.837 6.97412 446.953 6.35265 447.73C5.22348 449.142 5.64403 450.103 4.81174 451.601C2.2497 456.213 7.37277 464.02 7.85598 468.852C8.05443 470.837 9.36305 472.949 7.70564 474.79C6.60661 476.011 4.7602 479.673 4.51107 481.292C4.19599 483.34 3.79699 484.834 3.79699 487.118C3.79699 490.575 5.34122 493.603 5.86407 497.002C6.49041 501.073 9.11477 504.457 11.915 507.412C15.6751 511.382 16.5431 516.177 17.327 521.469C17.6611 523.724 26.1133 525.777 28.1509 526.881C31.1965 528.53 32.8864 528.596 32.8864 531.428C32.8864 535.243 35.3203 538.391 35.5924 542.064C35.7663 544.412 36.799 547.604 37.9602 549.694C39.3673 552.226 42.9985 552.692 46.0781 553.377C48.111 553.829 49.5048 555.241 51.1519 556.797C55.313 560.727 60.072 563.888 62.8027 569.35C64.2323 572.209 69.2184 573.204 71.7475 575.213C74.6759 577.538 77.9469 575.468 81.4678 576.765C84.4245 577.854 89.9737 577.378 93.1694 577.959C96.7991 578.619 99.7377 580.825 103.438 580.825C106.989 580.825 109.453 586.187 111.796 588.467C115.991 592.548 119.392 597.825 122.184 603.099C125.065 608.541 126.887 614.941 128.949 620.613C130.352 624.47 137.284 627.37 140.036 630.122C142.741 632.827 145.994 633.946 148.718 636.774C154.144 642.408 153.365 650.02 156.215 657.144C158.558 663.001 168.625 662.953 173.841 661.504C177.624 660.453 182.562 652.828 187.021 655.572C191.887 658.566 200.717 664.458 205.887 661.504C207.928 660.337 209.603 649.876 208.776 648.124C207.76 645.973 200.998 636.155 200.404 634.079C197.61 624.299 210.363 619.247 216.155 611.631C227.618 601.601 240.275 578.971 256.883 578.971C264.69 576.368 266.982 586.577 274.663 589.422C279.159 591.087 288.552 587.312 292.324 590.246C294.244 591.74 297.97 591.896 300.254 591.975C303.748 592.095 305.581 595.87 308.813 595.87C313.5 595.87 317.914 599.969 322.902 600.885C330.241 602.233 337.583 595.799 344.156 592.765C345.576 592.11 349.967 588.027 351.082 586.939C352.474 585.579 360.05 582.006 361.589 580.825C369.491 574.76 372.245 580.883 381.584 579.121C386.097 578.27 390.623 576.946 394.512 579.647C396.56 581.069 396.318 585.476 398.366 586.939C404.658 591.433 411.783 593.839 419.487 594.906C426.044 595.814 431.56 592.765 437.769 587.75C440.004 587.362 442.583 583.213 444.694 583.213C449.879 583.213 454.959 589.092 457.201 593.328C459.559 597.782 459.852 604.894 464.754 606.855C468.467 608.34 472.001 608.309 476.143 608.884C482.269 609.735 494.366 609.721 507.501 598.735C514.074 597.766 521.34 607.403 527.322 604.467C532.093 602.125 540.35 592.002 544.755 589.183C547.374 587.507 546.838 583.516 550.008 583.929C557.321 584.883 567.68 591.571 575.776 586.563C585.352 589.183 594.317 586.563 603.588 586.563C608.136 586.563 611.054 583.521 615.442 582.504C618.512 581.792 621.195 582.568 623.8 580.437C624.776 579.638 630.723 580.512 632.038 580.437C636.161 580.201 640.723 579.74 644.742 578.783C647.29 578.176 648.358 584.852 650.069 586.563C651.879 588.373 655.673 592.542 657.445 593.959C657.945 594.36 659.742 594.664 660.376 594.749C667.009 595.633 674.653 585.276 681.353 585.736C686.248 586.072 684.094 584.881 688.994 585.123C690.1 585.178 694.126 576.115 694.126 576.115C697.261 571.188 697.546 571.282 701.864 567.283C708.476 561.161 712.932 560.049 720.995 560.049" stroke="#0E0E0E" stroke-opacity="0.25" stroke-width="1.43285" stroke-linecap="round"/>
<path d="M720.756 560.049C725.604 559.764 728.098 551.722 728.948 547.898C729.13 547.079 730.267 541.904 730.544 541.904C731.653 541.904 733.775 538.667 735.085 538.317C736.535 537.931 739.265 538.317 740.816 538.317C746.341 538.317 747.053 538.246 752.251 536.761C754.468 536.127 755.47 534.22 757.358 533.533C760.25 532.482 760.184 531.102 763.264 531.369C768.271 531.805 770.565 535.862 775.443 536.761C776.656 536.984 781.145 540.264 782.13 539.034C783.483 538.132 790.141 533.835 791.196 534.136C792.826 534.602 795.075 536.628 796.8 536.761C805.142 537.402 812.607 535.53 820.422 532.717C831.085 527.571 840.877 524.466 850.748 519.204C852.535 517.975 854.048 516.533 855.961 515.338C858.143 513.974 865.587 512.473 867.808 513.741C869.359 514.628 870.286 516.096 871.683 517.063C872.759 517.808 874.903 517.431 876.179 517.856C879.315 518.901 881.927 520.336 884.372 517.891C886.983 515.28 889.563 512.888 891.395 509.592C892.384 507.811 898.14 502.579 900.101 502.018C905.617 500.442 905.964 501.452 910.583 498.064C913.392 496.005 915.61 494.776 917.642 491.964C921.632 486.438 926.309 481.024 931.297 476.393C934.355 473.554 932.908 471.519 934.967 467.916C935.462 467.049 940.031 467.062 940.235 467.419C940.967 468.701 945.719 472.083 946.907 472.167C951.345 472.484 953.665 474.281 957.654 476.393C960.041 477.657 965.045 472.477 967.675 472.882C975.68 474.113 981.272 474.305 987.027 468.824C989.182 466.772 993.563 470.531 996.579 470.496C998.965 470.468 1005.09 469.489 1007.33 470.496C1008.98 471.24 1013.53 467.525 1015.44 467.916C1020.41 468.932 1018.79 461.171 1022.24 461.899C1024.73 459.409 1027.29 457.129 1029.76 454.663C1034.87 449.55 1040.43 439.173 1040.43 432.012C1040.43 430.137 1033.77 429.868 1031.92 428.943C1022.67 431.381 1028.01 429.903 1028.1 426.555C1028.14 425.389 1034.31 420.168 1034.72 421.807C1035.12 423.399 1043.01 419.172 1044.1 417.958C1046.81 414.95 1051.97 414.673 1053.73 410.953C1055.89 406.398 1059.54 404.9 1061.9 400.437C1065.68 393.301 1072.27 388.038 1074.67 380.227C1076.54 374.149 1074.47 371.595 1074.67 364.943C1074.77 361.591 1078.66 352.476 1080.41 349.805C1081.66 347.897 1083.81 346.534 1085.02 344.556C1088.41 339.003 1095.77 335.974 1100.48 331.787C1103.46 329.143 1110.95 326.765 1114.55 325.062C1120.67 322.163 1120.72 320.01 1127.05 317.752C1132.85 315.679 1131.07 311.406 1130.79 306.435C1130.62 303.339 1130.79 296.498 1130.79 293.062" stroke="#0E0E0E" stroke-opacity="0.25" stroke-width="1.43285" stroke-linecap="round"/>
<path d="M1130.79 293.062C1130.79 292.823 1135.86 280.053 1137.24 279.108C1140.91 276.584 1143.58 268.619 1144.49 264.489C1144.89 262.707 1146.8 260.033 1147.59 258.256C1148.35 256.544 1149.05 253.58 1149.05 251.694C1149.05 250.779 1149.12 245.652 1149.56 246.444C1150.63 248.342 1150.88 250.357 1151.82 252.35C1152.96 254.749 1153.79 256.779 1154.34 259.24C1155.4 264.021 1169.38 261.291 1170.7 258.912C1171.9 256.767 1175.54 247.16 1173 245.132C1171.62 244.024 1170.97 241.982 1168.74 241.851C1165.76 241.676 1161.23 236.505 1160.21 234.123C1157.16 227.007 1157.8 216.048 1161.04 208.752C1163.29 203.686 1164.6 203.174 1169.71 203.174C1174.97 203.174 1178.89 204.008 1184.04 202.076C1188.75 200.312 1187.16 196.322 1185.48 192.524C1183.82 188.794 1182.33 187.945 1179.6 184.435C1178.42 182.925 1177.27 181.564 1177.27 179.514C1177.27 177.23 1173.46 173.552 1171.87 171.785C1170.47 170.228 1168.65 167.574 1166.44 167.083C1165.22 166.812 1162.24 169.217 1162.17 170.327C1162.04 172.529 1161.6 174.167 1160.21 175.905C1159.67 176.573 1159.21 177.683 1158.56 178.201C1157.76 178.846 1158.71 180.181 1157.91 180.826C1157.39 181.239 1157.9 183.049 1156.92 182.649C1155.41 182.027 1155.15 180.761 1154.15 179.66C1153.48 178.912 1153.38 177.816 1152.84 176.889C1151.95 175.344 1150.1 174.489 1149.2 172.952C1146.92 169.083 1143.07 165.629 1139.15 163.389C1135.69 161.413 1132.38 157.322 1128.64 155.986C1121.24 142.374 1136.28 150.255 1138.67 145.717C1136.76 141.658 1144.16 120.211 1144.16 114.672C1144.16 110.569 1141.18 100.444 1135.09 100.105C1130.86 99.8704 1127.26 101.674 1125.06 98.6722C1123.81 96.9741 1125.36 94.3812 1126.01 91.9856C1126.42 90.4808 1125.7 84.8608 1125.06 83.3885C1123.6 80.0498 1118.29 76.4425 1114.27 75.3264C1110.78 74.356 1106.31 74.1213 1103.12 72.7017C1101.43 71.9496 1101.11 71.6646 1099.27 71.4481C1097.11 71.1945 1096.38 70.4929 1094.25 70.4929C1092.84 70.4929 1091.78 67.6272 1090.32 67.6272C1088.82 67.6272 1084.6 66.0294 1083.27 65.9556C1080 65.7743 1074.73 66.7153 1072.28 68.6188C1071.01 69.6048 1069.19 71.8991 1067.74 72.7017C1066.91 73.1658 1060.68 73.4774 1060.1 74.1964C1060.07 74.2331 1053.68 64.932 1052.15 64.0255C1048.63 61.9355 1043.98 61.7189 1040.45 59.7603C1038.13 58.4686 1036.56 57.7616 1034.55 56.1513C1033.03 54.9422 1030.9 52.1028 1029.77 50.3915C1028.48 48.4293 1026.2 47.3979 1025.03 45.3608C1024.7 44.7876 1023.9 43.3381 1023.35 43.0277C1021.83 42.1592 1021.77 40.0701 1020.44 39.2364C1019.6 38.7099 1017.15 40.1125 1016.64 39.2364C1015.25 36.8769 1017.81 33.2807 1017.81 30.706C1017.81 21.9781 1013.53 15.3283 1006.61 9.35815" stroke="#0E0E0E" stroke-opacity="0.25" stroke-width="1.43285" stroke-linecap="round"/>
</svg>
