<svg width="50" height="50" viewBox="0 0 50 50" fill="none" xmlns="http://www.w3.org/2000/svg">
<g clip-path="url(#clip0_50_2058)">
<path d="M3.1558 22.8653L24.9995 35.9736L46.8433 22.8653C47.3171 22.581 47.8844 22.4966 48.4205 22.6306C48.9565 22.7646 49.4174 23.106 49.7016 23.5798C49.9859 24.0536 50.0703 24.621 49.9363 25.157C49.8023 25.693 49.4609 26.1539 48.9871 26.4382L26.0704 40.1882C25.7464 40.3829 25.3755 40.4857 24.9975 40.4857C24.6195 40.4857 24.2486 40.3829 23.9246 40.1882L1.00788 26.4382C0.534081 26.1539 0.192619 25.693 0.058609 25.157C-0.0754013 24.621 0.00902176 24.0536 0.293301 23.5798C0.577579 23.106 1.03843 22.7646 1.57447 22.6306C2.11051 22.4966 2.67783 22.581 3.15163 22.8653H3.1558Z" fill="#0E0E0E"/>
<path d="M3.1558 32.3809L24.9996 45.4872L46.8433 32.3809C47.0779 32.2401 47.3379 32.1469 47.6085 32.1067C47.8792 32.0664 48.1551 32.0798 48.4205 32.1462C48.6859 32.2125 48.9356 32.3305 49.1555 32.4934C49.3753 32.6563 49.5609 32.8609 49.7016 33.0955C49.8424 33.3301 49.9356 33.5901 49.9758 33.8607C50.0161 34.1313 50.0027 34.4072 49.9363 34.6726C49.8023 35.2087 49.4609 35.6695 48.9871 35.9538L26.0704 49.7039C25.7464 49.8985 25.3755 50.0014 24.9975 50.0014C24.6195 50.0014 24.2486 49.8985 23.9246 49.7039L1.00789 35.9538C0.534092 35.6695 0.192627 35.2087 0.0586166 34.6726C-0.0753937 34.1366 0.00902939 33.5693 0.293308 33.0955C0.577587 32.6217 1.03844 32.2802 1.57448 32.1462C2.11052 32.0122 2.67784 32.0966 3.15164 32.3809H3.1558Z" fill="#0E0E0E"/>
<path d="M25.0002 30.7779C26.124 30.7773 27.2265 30.4712 28.1898 29.8925L48.9898 17.4112C49.2978 17.226 49.5526 16.9643 49.7296 16.6514C49.9065 16.3385 49.9995 15.9852 49.9995 15.6258C49.9995 15.2664 49.9065 14.9131 49.7296 14.6002C49.5526 14.2874 49.2978 14.0256 48.9898 13.8404L28.1898 1.35914C27.2265 0.780452 26.1239 0.474731 25.0002 0.474731C23.8764 0.474731 22.7739 0.780452 21.8106 1.35914L1.01059 13.8404C0.702564 14.0256 0.447697 14.2874 0.27076 14.6002C0.0938225 14.9131 0.000831604 15.2664 0.000831604 15.6258C0.000831604 15.9852 0.0938225 16.3385 0.27076 16.6514C0.447697 16.9643 0.702564 17.226 1.01059 17.4112L21.8106 29.8925C22.7739 30.4712 23.8764 30.7773 25.0002 30.7779ZM43.8668 15.6258L26.0418 26.3196C25.727 26.5079 25.367 26.6073 25.0002 26.6073C24.6333 26.6073 24.2733 26.5079 23.9585 26.3196L6.13351 15.6258L23.9585 4.93206C24.2733 4.74374 24.6333 4.64428 25.0002 4.64428C25.367 4.64428 25.727 4.74374 26.0418 4.93206L43.8668 15.6258Z" fill="#0E0E0E"/>
</g>
<defs>
<clipPath id="clip0_50_2058">
<rect width="50" height="50" fill="white" transform="matrix(-1 0 0 1 50 0)"/>
</clipPath>
</defs>
</svg>
