<svg width="50" height="50" viewBox="0 0 50 50" fill="none" xmlns="http://www.w3.org/2000/svg">
<g clip-path="url(#clip0_50_2898)">
<path d="M44.7084 8.61251C44.2872 6.19844 43.0271 4.01064 41.1503 2.43495C39.2735 0.859269 36.9006 -0.00307393 34.45 1.20316e-05H15.523C13.0705 -0.00371672 10.6956 0.859359 8.81782 2.4368C6.93999 4.01423 5.68004 6.20454 5.26049 8.62084L0.15841 37.7875C-0.103598 39.2845 -0.0348621 40.8207 0.359794 42.2884C0.75445 43.756 1.46547 45.1195 2.44296 46.2832C3.42045 47.4469 4.64074 48.3826 6.01821 49.0247C7.39568 49.6668 8.89697 49.9997 10.4167 50H39.5834C41.1041 50.0002 42.6065 49.6674 43.9849 49.0249C45.3634 48.3825 46.5844 47.446 47.5623 46.2813C48.5401 45.1166 49.2511 43.7519 49.6453 42.2831C50.0394 40.8143 50.1072 39.277 49.8438 37.7792L44.7084 8.61251ZM44.375 43.6021C43.7878 44.3015 43.0545 44.8637 42.2267 45.2492C41.3988 45.6347 40.4966 45.8341 39.5834 45.8333H10.4167C9.5046 45.8334 8.60352 45.6337 7.77674 45.2485C6.94997 44.8632 6.21754 44.3016 5.63088 43.6032C5.04422 42.9048 4.61754 42.0864 4.3808 41.2055C4.14406 40.3246 4.10299 39.4026 4.26049 38.5042L9.36257 9.33751C9.61659 7.88841 10.3737 6.57537 11.5005 5.62952C12.6274 4.68368 14.0518 4.16567 15.523 4.16668H34.45C35.9196 4.16697 37.342 4.68506 38.4675 5.62994C39.5929 6.57482 40.3495 7.88607 40.6042 9.33335L45.7354 38.5C45.8947 39.3982 45.8555 40.3204 45.6205 41.2018C45.3855 42.0832 44.9604 42.9025 44.375 43.6021ZM27.0834 10.4167V14.5833C27.0834 15.1359 26.8639 15.6658 26.4732 16.0565C26.0825 16.4472 25.5526 16.6667 25 16.6667C24.4475 16.6667 23.9176 16.4472 23.5269 16.0565C23.1362 15.6658 22.9167 15.1359 22.9167 14.5833V10.4167C22.9167 9.86414 23.1362 9.33424 23.5269 8.94354C23.9176 8.55284 24.4475 8.33334 25 8.33334C25.5526 8.33334 26.0825 8.55284 26.4732 8.94354C26.8639 9.33424 27.0834 9.86414 27.0834 10.4167ZM27.0834 22.9167V27.0833C27.0834 27.6359 26.8639 28.1658 26.4732 28.5565C26.0825 28.9472 25.5526 29.1667 25 29.1667C24.4475 29.1667 23.9176 28.9472 23.5269 28.5565C23.1362 28.1658 22.9167 27.6359 22.9167 27.0833V22.9167C22.9167 22.3641 23.1362 21.8342 23.5269 21.4435C23.9176 21.0528 24.4475 20.8333 25 20.8333C25.5526 20.8333 26.0825 21.0528 26.4732 21.4435C26.8639 21.8342 27.0834 22.3641 27.0834 22.9167ZM27.0834 35.4167V39.5833C27.0834 40.1359 26.8639 40.6658 26.4732 41.0565C26.0825 41.4472 25.5526 41.6667 25 41.6667C24.4475 41.6667 23.9176 41.4472 23.5269 41.0565C23.1362 40.6658 22.9167 40.1359 22.9167 39.5833V35.4167C22.9167 34.8641 23.1362 34.3342 23.5269 33.9435C23.9176 33.5528 24.4475 33.3333 25 33.3333C25.5526 33.3333 26.0825 33.5528 26.4732 33.9435C26.8639 34.3342 27.0834 34.8641 27.0834 35.4167Z" fill="black"/>
</g>
<defs>
<clipPath id="clip0_50_2898">
<rect width="50" height="50" fill="white"/>
</clipPath>
</defs>
</svg>
