<svg width="18" height="18" viewBox="0 0 18 18" fill="none" xmlns="http://www.w3.org/2000/svg">
<g clip-path="url(#clip0_769_2178)">
<path d="M0.995089 9.30009L3.66509 11.2501L2.65109 14.3903C2.48722 14.8774 2.48515 15.4043 2.64517 15.8927C2.8052 16.381 3.11875 16.8045 3.53909 17.1001C3.95223 17.4052 4.45288 17.5686 4.96646 17.566C5.48003 17.5635 5.97902 17.395 6.38909 17.0858L8.99984 15.1643L11.6113 17.0836C12.0237 17.3869 12.5217 17.5517 13.0336 17.5542C13.5455 17.5567 14.0451 17.3968 14.4604 17.0975C14.8757 16.7982 15.1855 16.3749 15.3451 15.8884C15.5046 15.402 15.5059 14.8775 15.3486 14.3903L14.3346 11.2501L17.0046 9.30009C17.4164 8.99897 17.7226 8.5754 17.8793 8.08988C18.0361 7.60436 18.0354 7.08173 17.8773 6.59663C17.7193 6.11153 17.412 5.68878 16.9994 5.38877C16.5867 5.08875 16.0898 4.92682 15.5796 4.92609H12.2998L11.3046 1.82409C11.1481 1.33581 10.8405 0.909848 10.4263 0.607637C10.0121 0.305425 9.51259 0.142578 8.99984 0.142578C8.48709 0.142578 7.98759 0.305425 7.57336 0.607637C7.15914 0.909848 6.8516 1.33581 6.69509 1.82409L5.69984 4.92609H2.42309C1.9129 4.92682 1.41598 5.08875 1.00332 5.38877C0.590666 5.68878 0.28337 6.11153 0.125331 6.59663C-0.032709 7.08173 -0.0334085 7.60436 0.123332 8.08988C0.280072 8.5754 0.586235 8.99897 0.998089 9.30009H0.995089Z" fill="#0E0E0E"/>
</g>
<defs>
<clipPath id="clip0_769_2178">
<rect width="18" height="18" fill="white"/>
</clipPath>
</defs>
</svg>
