<svg width="24" height="24" viewBox="0 0 24 24" fill="none" xmlns="http://www.w3.org/2000/svg">
<g clip-path="url(#clip0_47_2638)">
<path d="M1.3267 12.4004L4.8867 15.0004L3.53471 19.1874C3.31622 19.8368 3.31345 20.5394 3.52681 21.1905C3.74018 21.8416 4.15825 22.4063 4.7187 22.8004C5.26956 23.2072 5.9371 23.4251 6.62186 23.4217C7.30662 23.4183 7.97195 23.1937 8.51871 22.7814L11.9997 20.2194L15.4817 22.7784C16.0316 23.1829 16.6955 23.4026 17.3781 23.4059C18.0607 23.4092 18.7267 23.196 19.2805 22.797C19.8342 22.3979 20.2472 21.8335 20.46 21.1849C20.6728 20.5363 20.6744 19.837 20.4647 19.1874L19.1127 15.0004L22.6727 12.4004C23.2218 11.999 23.6301 11.4342 23.8391 10.7868C24.048 10.1395 24.0471 9.44263 23.8364 8.79583C23.6257 8.14903 23.2159 7.58537 22.6657 7.18535C22.1155 6.78533 21.453 6.56941 20.7727 6.56844H16.3997L15.0727 2.43244C14.864 1.7814 14.454 1.21346 13.9017 0.810508C13.3494 0.407559 12.6834 0.19043 11.9997 0.19043C11.316 0.19043 10.65 0.407559 10.0977 0.810508C9.54544 1.21346 9.13538 1.7814 8.92671 2.43244L7.59971 6.56844H3.23071C2.55045 6.56941 1.8879 6.78533 1.33768 7.18535C0.787473 7.58537 0.377745 8.14903 0.167026 8.79583C-0.0436933 9.44263 -0.044626 10.1395 0.164361 10.7868C0.373348 11.4342 0.781566 11.999 1.3307 12.4004H1.3267Z" fill="#0E0E0E"/>
</g>
<defs>
<clipPath id="clip0_47_2638">
<rect width="24" height="24" fill="white"/>
</clipPath>
</defs>
</svg>
