<svg width="20" height="20" viewBox="0 0 20 20" fill="none" xmlns="http://www.w3.org/2000/svg">
<path d="M14.1342 12.5786H13.2409L12.9243 12.2699C14.0324 10.9663 14.6995 9.27387 14.6995 7.43282C14.6995 3.32762 11.4091 0 7.34977 0C3.29044 0 0 3.32762 0 7.43282C0 11.538 3.29044 14.8656 7.34977 14.8656C9.17025 14.8656 10.8437 14.191 12.1328 13.0703L12.4381 13.3905V14.2939L18.0917 20L19.7765 18.2962L14.1342 12.5786ZM7.34977 12.5786C4.53424 12.5786 2.26147 10.2802 2.26147 7.43282C2.26147 4.58548 4.53424 2.28702 7.34977 2.28702C10.1653 2.28702 12.4381 4.58548 12.4381 7.43282C12.4381 10.2802 10.1653 12.5786 7.34977 12.5786Z" fill="#E6E6E6"/>
</svg>
