<svg width="18" height="18" viewBox="0 0 18 18" fill="none" xmlns="http://www.w3.org/2000/svg">
<g clip-path="url(#clip0_148_2731)">
<path d="M17.8768 6.59559C17.7234 6.10726 17.4169 5.68127 17.0027 5.38061C16.5884 5.07995 16.0884 4.92059 15.5766 4.92609H12.2998L11.3046 1.82409C11.1481 1.33581 10.8405 0.909848 10.4263 0.607637C10.0121 0.305425 9.51259 0.142578 8.99984 0.142578C8.48709 0.142578 7.98759 0.305425 7.57336 0.607637C7.15914 0.909848 6.8516 1.33581 6.69509 1.82409L5.69984 4.92609H2.42309C1.9129 4.92682 1.41598 5.08875 1.00332 5.38877C0.590665 5.68878 0.28337 6.11153 0.125331 6.59663C-0.032709 7.08173 -0.0334085 7.60436 0.123332 8.08988C0.280072 8.5754 0.586235 8.99897 0.998089 9.30009L3.66509 11.2501L2.65109 14.3903C2.48722 14.8774 2.48515 15.4043 2.64517 15.8927C2.8052 16.381 3.11875 16.8045 3.53909 17.1001C3.95223 17.4052 4.45288 17.5686 4.96645 17.566C5.48003 17.5635 5.97902 17.395 6.38909 17.0858L8.99984 15.1643L11.6113 17.0836C12.0237 17.3869 12.5217 17.5517 13.0336 17.5542C13.5455 17.5567 14.0451 17.3968 14.4604 17.0975C14.8757 16.7982 15.1855 16.3749 15.3451 15.8884C15.5046 15.402 15.5059 14.8775 15.3486 14.3903L14.3346 11.2501L17.0046 9.30009C17.4212 9.00275 17.7309 8.57919 17.888 8.0921C18.0451 7.60501 18.0412 7.08028 17.8768 6.59559ZM16.1196 8.08884L13.0116 10.3606C12.8839 10.4537 12.7889 10.5848 12.7402 10.7351C12.6914 10.8854 12.6914 11.0473 12.7401 11.1976L13.9213 14.8501C13.9811 15.0353 13.9806 15.2348 13.9199 15.4197C13.8592 15.6047 13.7414 15.7656 13.5834 15.8794C13.4255 15.9931 13.2355 16.0539 13.0408 16.0529C12.8462 16.0519 12.6569 15.9892 12.5001 15.8738L9.44384 13.6238C9.31511 13.5293 9.15956 13.4783 8.99984 13.4783C8.84012 13.4783 8.68457 13.5293 8.55584 13.6238L5.49959 15.8738C5.3429 15.9908 5.15304 16.0548 4.95754 16.0565C4.76203 16.0583 4.57104 15.9978 4.41226 15.8837C4.25348 15.7696 4.13515 15.608 4.07444 15.4221C4.01372 15.2363 4.01378 15.0359 4.07459 14.8501L5.25959 11.1976C5.30828 11.0473 5.30824 10.8854 5.25949 10.7351C5.21073 10.5848 5.11575 10.4537 4.98809 10.3606L1.88009 8.08884C1.72357 7.97424 1.60726 7.8131 1.5478 7.62845C1.48833 7.44379 1.48873 7.24507 1.54895 7.06066C1.60917 6.87625 1.72613 6.71559 1.88312 6.60163C2.04011 6.48766 2.2291 6.42623 2.42309 6.42609H6.24809C6.40688 6.42608 6.56156 6.37568 6.68988 6.28215C6.81819 6.18861 6.9135 6.05676 6.96209 5.90559L8.12459 2.28234C8.18426 2.09693 8.30122 1.93523 8.45864 1.82052C8.61606 1.70582 8.80581 1.64402 9.00059 1.64402C9.19537 1.64402 9.38512 1.70582 9.54254 1.82052C9.69995 1.93523 9.81692 2.09693 9.87659 2.28234L11.0391 5.90559C11.0877 6.05676 11.183 6.18861 11.3113 6.28215C11.4396 6.37568 11.5943 6.42608 11.7531 6.42609H15.5781C15.7721 6.42623 15.9611 6.48766 16.1181 6.60163C16.275 6.71559 16.392 6.87625 16.4522 7.06066C16.5124 7.24507 16.5129 7.44379 16.4534 7.62845C16.3939 7.8131 16.2776 7.97424 16.1211 8.08884H16.1196Z" fill="#0E0E0E"/>
</g>
<defs>
<clipPath id="clip0_148_2731">
<rect width="18" height="18" fill="white"/>
</clipPath>
</defs>
</svg>
