<svg width="18" height="18" viewBox="0 0 18 18" fill="none" xmlns="http://www.w3.org/2000/svg">
<g clip-path="url(#clip0_148_2737)">
<path d="M9.75004 1.53825V0.75C9.75004 0.551088 9.67102 0.360322 9.53037 0.21967C9.38972 0.0790176 9.19895 0 9.00004 0C8.80113 0 8.61036 0.0790176 8.46971 0.21967C8.32906 0.360322 8.25004 0.551088 8.25004 0.75V1.53825C6.74012 1.67362 5.29686 2.22315 4.07928 3.12631C2.8617 4.02948 1.91706 5.25121 1.34943 6.65691C0.781797 8.06261 0.613208 9.59772 0.862236 11.0931C1.11126 12.5885 1.76824 13.9861 2.76079 15.132C2.36882 15.3259 2.04126 15.629 1.81758 16.0048C1.5939 16.3806 1.48362 16.813 1.50004 17.25C1.50004 17.4489 1.57906 17.6397 1.71971 17.7803C1.86036 17.921 2.05113 18 2.25004 18C2.44895 18 2.63972 17.921 2.78037 17.7803C2.92102 17.6397 3.00004 17.4489 3.00004 17.25C2.99381 17.0188 3.0768 16.7941 3.2318 16.6225C3.38681 16.4509 3.60193 16.3455 3.83254 16.3283C3.88413 16.3184 3.93445 16.3028 3.98254 16.2817C5.41919 17.396 7.18567 18.0008 9.00379 18.0008C10.8219 18.0008 12.5884 17.396 14.025 16.2817C14.0689 16.302 14.1146 16.318 14.1615 16.3298C14.393 16.3455 14.6094 16.45 14.7656 16.6215C14.9218 16.793 15.0058 17.0181 15 17.25C15 17.4489 15.0791 17.6397 15.2197 17.7803C15.3604 17.921 15.5511 18 15.75 18C15.949 18 16.1397 17.921 16.2804 17.7803C16.421 17.6397 16.5 17.4489 16.5 17.25C16.5165 16.813 16.4062 16.3806 16.1825 16.0048C15.9588 15.629 15.6313 15.3259 15.2393 15.132C16.2318 13.9861 16.8888 12.5885 17.1378 11.0931C17.3869 9.59772 17.2183 8.06261 16.6507 6.65691C16.083 5.25121 15.1384 4.02948 13.9208 3.12631C12.7032 2.22315 11.26 1.67362 9.75004 1.53825ZM2.25004 9.75C2.25004 8.41498 2.64592 7.10993 3.38762 5.9999C4.12932 4.88987 5.18353 4.0247 6.41693 3.51381C7.65033 3.00292 9.00753 2.86925 10.3169 3.1297C11.6263 3.39015 12.829 4.03302 13.773 4.97703C14.717 5.92103 15.3599 7.12377 15.6203 8.43314C15.8808 9.74251 15.7471 11.0997 15.2362 12.3331C14.7253 13.5665 13.8602 14.6207 12.7501 15.3624C11.6401 16.1041 10.3351 16.5 9.00004 16.5C7.2105 16.4978 5.49488 15.786 4.22948 14.5206C2.96408 13.2552 2.25222 11.5395 2.25004 9.75Z" fill="#0E0E0E"/>
<path d="M14.4111 -0.00010786C14.2122 -0.00010786 14.0214 0.0789098 13.8807 0.219562C13.7401 0.360214 13.6611 0.55098 13.6611 0.749892C13.6611 0.948805 13.7401 1.13957 13.8807 1.28022C14.0214 1.42087 14.2122 1.49989 14.4111 1.49989C14.6726 1.48001 14.9354 1.5133 15.1838 1.59775C15.4321 1.68221 15.6607 1.81607 15.8559 1.99128C16.0511 2.16649 16.2088 2.37941 16.3194 2.6172C16.4301 2.855 16.4915 3.11274 16.4998 3.37489C16.4998 3.5738 16.5788 3.76457 16.7195 3.90522C16.8601 4.04587 17.0509 4.12489 17.2498 4.12489C17.4487 4.12489 17.6395 4.04587 17.7802 3.90522C17.9208 3.76457 17.9998 3.5738 17.9998 3.37489C17.9902 2.91626 17.8893 2.46415 17.7028 2.04501C17.5164 1.62587 17.2483 1.24812 16.9141 0.933856C16.5799 0.61959 16.1864 0.375122 15.7567 0.214755C15.3269 0.0543884 14.8694 -0.0186571 14.4111 -0.00010786Z" fill="#0E0E0E"/>
<path d="M1.5 3.37489C1.50836 3.11274 1.56972 2.855 1.68039 2.6172C1.79106 2.37941 1.94873 2.16649 2.14391 1.99128C2.3391 1.81607 2.56774 1.68221 2.81605 1.59775C3.06437 1.5133 3.32722 1.48001 3.58875 1.49989C3.78766 1.49989 3.97843 1.42087 4.11908 1.28022C4.25973 1.13957 4.33875 0.948805 4.33875 0.749892C4.33875 0.55098 4.25973 0.360214 4.11908 0.219562C3.97843 0.0789098 3.78766 -0.00010786 3.58875 -0.00010786C3.1304 -0.0186571 2.67295 0.0543884 2.24316 0.214755C1.81338 0.375122 1.41989 0.61959 1.08572 0.933856C0.75155 1.24812 0.48341 1.62587 0.296986 2.04501C0.110561 2.46415 0.00959718 2.91626 0 3.37489C0 3.5738 0.0790176 3.76457 0.21967 3.90522C0.360322 4.04587 0.551088 4.12489 0.75 4.12489C0.948912 4.12489 1.13968 4.04587 1.28033 3.90522C1.42098 3.76457 1.5 3.5738 1.5 3.37489Z" fill="#0E0E0E"/>
<path d="M9.75012 8.6895V5.25C9.75012 5.05109 9.6711 4.86032 9.53045 4.71967C9.3898 4.57902 9.19903 4.5 9.00012 4.5C8.80121 4.5 8.61044 4.57902 8.46979 4.71967C8.32914 4.86032 8.25012 5.05109 8.25012 5.25V9C8.25016 9.1989 8.32921 9.38963 8.46987 9.53025L10.7199 11.7803C10.8613 11.9169 11.0508 11.9925 11.2474 11.9908C11.4441 11.989 11.6322 11.9102 11.7712 11.7711C11.9103 11.6321 11.9892 11.4439 11.9909 11.2473C11.9926 11.0507 11.917 10.8612 11.7804 10.7198L9.75012 8.6895Z" fill="#0E0E0E"/>
</g>
<defs>
<clipPath id="clip0_148_2737">
<rect width="18" height="18" fill="white"/>
</clipPath>
</defs>
</svg>
